<?xml version="1.0" encoding="iso-8859-1"?>
<!-- Generator: Adobe Illustrator 22.1.0, SVG Export Plug-In . SVG Version: 6.00 Build 0)  -->
<svg version="1.1" id="Layer_1" xmlns="http://www.w3.org/2000/svg" xmlns:xlink="http://www.w3.org/1999/xlink" x="0px" y="0px"
	 viewBox="0 0 100 100" style="enable-background:new 0 0 100 100;" xml:space="preserve">
<g>
	<path style="fill:#C7EDE6;" d="M87.215,56.71C88.35,54.555,89,52.105,89,49.5c0-6.621-4.159-12.257-10.001-14.478
		C78.999,35.015,79,35.008,79,35c0-11.598-9.402-21-21-21c-9.784,0-17.981,6.701-20.313,15.757C36.211,29.272,34.638,29,33,29
		c-7.692,0-14.023,5.793-14.89,13.252C12.906,43.353,9,47.969,9,53.5C9,59.851,14.149,65,20.5,65c0.177,0,0.352-0.012,0.526-0.022
		C21.022,65.153,21,65.324,21,65.5C21,76.822,30.178,86,41.5,86c6.437,0,12.175-2.972,15.934-7.614C59.612,80.611,62.64,82,66,82
		c4.65,0,8.674-2.65,10.666-6.518C77.718,75.817,78.837,76,80,76c6.075,0,11-4.925,11-11C91,61.689,89.53,58.727,87.215,56.71z"/>
</g>
<g>
	<g>
		<g>
			<rect x="59.7" y="37.917" style="fill:#C0D078;" width="4.6" height="23.251"/>
		</g>
		<g>
			<path style="fill:#472B29;" d="M63.6,38.617V60.47h-3.2V38.617H63.6 M65,37.217h-6V61.87h6V37.217L65,37.217z"/>
		</g>
	</g>
	<g>
		<g>
			<path style="fill:#C0D078;" d="M73.667,61.3c-2.692,0-4.967-2.248-4.967-4.908V44.7h4.6v10.321c0,1.679,1.342,1.679,1.783,1.679
				h2.834c1.184,0,1.783-0.572,1.783-1.7V44.7h4.6v11.691c0,2.66-2.274,4.908-4.967,4.908H73.667z"/>
		</g>
		<g>
			<path style="fill:#472B29;" d="M83.6,45.4v10.991c0,2.281-1.954,4.209-4.267,4.209h-5.667c-2.313,0-4.267-1.927-4.267-4.209V45.4
				h3.2v9.622c0,0.715,0.242,2.378,2.483,2.378h2.833c1.555,0,2.483-0.897,2.483-2.4v-9.6H83.6 M85,44h-6v11
				c0,0.685-0.233,1-1.083,1h-2.833C74.375,56,74,55.843,74,55.022V44h-6v12.391C68,59.404,70.55,62,73.667,62h5.667
				C82.45,62,85,59.404,85,56.391V44L85,44z"/>
		</g>
	</g>
	<g>
		<g>
			<path style="fill:#C0D078;" d="M44.667,61.3c-2.692,0-4.967-2.248-4.967-4.908V44.7h4.6v10.321c0,1.679,1.342,1.679,1.783,1.679
				h2.834c1.184,0,1.783-0.572,1.783-1.7V44.7h4.6v11.691c0,2.66-2.274,4.908-4.967,4.908H44.667z"/>
		</g>
		<g>
			<path style="fill:#472B29;" d="M54.6,45.4v10.991c0,2.281-1.954,4.209-4.267,4.209h-5.667c-2.313,0-4.267-1.927-4.267-4.209V45.4
				h3.2v9.622c0,0.715,0.242,2.378,2.483,2.378h2.833c1.555,0,2.483-0.897,2.483-2.4v-9.6H54.6 M56,44h-6v11
				c0,0.685-0.233,1-1.083,1h-2.833C45.375,56,45,55.843,45,55.022V44h-6v12.391C39,59.404,41.55,62,44.667,62h5.667
				C53.45,62,56,59.404,56,56.391V44L56,44z"/>
		</g>
	</g>
	<g>
		<g>
			<path style="fill:#C0D078;" d="M30.7,61.3V51c0-1.081-0.593-1.701-1.627-1.701l-2.062,0C25.92,49.318,25.3,49.938,25.3,51v10.3
				h-4.6V37.7h4.6v7h5.656c2.684,0,4.344,2.751,4.344,5.3v11.3H30.7z"/>
		</g>
		<g>
			<path style="fill:#472B29;" d="M24.6,38.4V44v1.4H26h4.957c2.25,0,3.643,2.388,3.643,4.6v10.6h-3.2V51
				c0-1.481-0.891-2.401-2.326-2.401l-0.05,0.001l-2.035,0C25.515,48.625,24.6,49.545,24.6,51v9.6h-3.2V49.5V38.4H24.6 M26,37h-6
				v12.5V62h6V51c0-0.694,0.318-0.988,1.012-1h2.012c0.017,0,0.034-0.001,0.05-0.001C29.612,49.999,30,50.191,30,51v11h6V50
				c0-3.056-2.03-6-5.043-6H26V37L26,37z"/>
		</g>
	</g>
	<g>
		<path style="fill:#472B29;" d="M55.5,40.75h-12c-0.138,0-0.25-0.112-0.25-0.25s0.112-0.25,0.25-0.25h12
			c0.138,0,0.25,0.112,0.25,0.25S55.638,40.75,55.5,40.75z"/>
	</g>
	<g>
		<path style="fill:#472B29;" d="M82.5,40.75h-14c-0.138,0-0.25-0.112-0.25-0.25s0.112-0.25,0.25-0.25h14
			c0.138,0,0.25,0.112,0.25,0.25S82.638,40.75,82.5,40.75z"/>
	</g>
	<g>
		<path style="fill:#472B29;" d="M40.5,40.75h-12c-0.138,0-0.25-0.112-0.25-0.25s0.112-0.25,0.25-0.25h12
			c0.138,0,0.25,0.112,0.25,0.25S40.638,40.75,40.5,40.75z"/>
	</g>
	<g>
		<path style="fill:#472B29;" d="M82.5,65.75h-30c-0.138,0-0.25-0.112-0.25-0.25s0.112-0.25,0.25-0.25h30
			c0.138,0,0.25,0.112,0.25,0.25S82.638,65.75,82.5,65.75z"/>
	</g>
	<g>
		<path style="fill:#472B29;" d="M48.5,65.75h-5c-0.138,0-0.25-0.112-0.25-0.25s0.112-0.25,0.25-0.25h5
			c0.138,0,0.25,0.112,0.25,0.25S48.638,65.75,48.5,65.75z"/>
	</g>
	<g>
		<path style="fill:#472B29;" d="M39.5,65.75h-15c-0.138,0-0.25-0.112-0.25-0.25s0.112-0.25,0.25-0.25h15
			c0.138,0,0.25,0.112,0.25,0.25S39.638,65.75,39.5,65.75z"/>
	</g>
</g>
<g>
	<g>
		<path style="fill:#FDFCEF;" d="M69.5,32.5V33h-3v-0.5c0,0-4.242,0-5.5,0c-2.485,0-4.5-2.015-4.5-4.5
			c0-2.333,1.782-4.229,4.055-4.455C60.533,23.364,60.5,23.187,60.5,23c0-2.485,2.015-4.5,4.5-4.5c1.438,0,2.703,0.686,3.527,1.736
			C68.667,17.6,70.829,15.5,73.5,15.5c2.761,0,5,2.239,5,5c0,0.446-0.077,0.87-0.187,1.282c0.642-0.777,1.6-1.282,2.687-1.282
			c1.781,0,3.234,1.335,3.455,3.055C84.636,23.533,84.813,23.5,85,23.5c2.485,0,4.5,2.015,4.5,4.5s-2.015,4.5-4.5,4.5s-9.5,0-9.5,0
			H69.5z"/>
	</g>
	<g>
		<path style="fill:#472B29;" d="M73.5,15c3.033,0,5.5,2.467,5.5,5.5c0,0.016,0,0.031,0,0.047C79.602,20.192,80.29,20,81,20
			c1.831,0,3.411,1.261,3.858,3.005C84.905,23.002,84.952,23,85,23c2.757,0,5,2.243,5,5s-2.243,5-5,5H69.5
			c-0.276,0-0.5-0.224-0.5-0.5s0.224-0.5,0.5-0.5H85c2.206,0,4-1.794,4-4s-1.794-4-4-4c-0.117,0-0.23,0.017-0.343,0.032
			l-0.141,0.019c-0.021,0.003-0.041,0.004-0.062,0.004c-0.246,0-0.462-0.185-0.495-0.437C83.768,22.125,82.496,21,81,21
			c-0.885,0-1.723,0.401-2.301,1.1c-0.098,0.118-0.241,0.182-0.386,0.182c-0.078,0-0.156-0.018-0.228-0.056
			c-0.209-0.107-0.314-0.346-0.254-0.573C77.946,21.218,78,20.852,78,20.5c0-2.481-2.019-4.5-4.5-4.5
			c-2.381,0-4.347,1.872-4.474,4.263c-0.011,0.208-0.15,0.387-0.349,0.45c-0.05,0.016-0.101,0.024-0.152,0.024
			c-0.15,0-0.296-0.069-0.392-0.192C67.362,19.563,66.221,19,65,19c-2.206,0-4,1.794-4,4c0,0.117,0.017,0.23,0.032,0.343
			l0.019,0.141c0.016,0.134-0.022,0.268-0.106,0.373c-0.084,0.105-0.207,0.172-0.34,0.185C58.549,24.247,57,25.949,57,28
			c0,2.206,1.794,4,4,4h5.5c0.276,0,0.5,0.224,0.5,0.5S66.776,33,66.5,33H61c-2.757,0-5-2.243-5-5c0-2.397,1.689-4.413,4.003-4.877
			C60.001,23.082,60,23.041,60,23c0-2.757,2.243-5,5-5c1.176,0,2.293,0.416,3.183,1.164C68.781,16.76,70.945,15,73.5,15L73.5,15z"/>
	</g>
	<g>
		<path style="fill:#472B29;" d="M75,22c1.403,0,2.609,0.999,2.913,2.341C78.28,24.119,78.699,24,79.125,24
			c1.202,0,2.198,0.897,2.353,2.068C81.681,26.022,81.874,26,82.063,26c1.529,0,2.811,1.2,2.918,2.732
			C84.99,28.87,84.886,28.99,84.749,29c-0.006,0-0.012,0-0.018,0c-0.13,0-0.24-0.101-0.249-0.232
			c-0.089-1.271-1.151-2.268-2.419-2.268c-0.229,0-0.47,0.042-0.738,0.127c-0.022,0.007-0.045,0.01-0.067,0.01
			c-0.055,0-0.11-0.02-0.156-0.054C81.038,26.537,81,26.455,81,26.375c0-1.034-0.841-1.875-1.875-1.875
			c-0.447,0-0.885,0.168-1.231,0.473c-0.047,0.041-0.106,0.063-0.165,0.063c-0.032,0-0.063-0.006-0.093-0.019
			c-0.088-0.035-0.148-0.117-0.155-0.212C77.377,23.512,76.288,22.5,75,22.5c-0.208,0-0.425,0.034-0.682,0.107
			c-0.023,0.007-0.047,0.01-0.07,0.01c-0.109,0-0.207-0.073-0.239-0.182c-0.038-0.133,0.039-0.271,0.172-0.309
			C74.483,22.04,74.744,22,75,22L75,22z"/>
	</g>
	<g>
		<path style="fill:#472B29;" d="M61.117,23.5c1.326,0,2.508,0.897,2.874,2.182c0.038,0.133-0.039,0.271-0.172,0.309
			C63.795,25.997,63.772,26,63.75,26c-0.109,0-0.209-0.072-0.24-0.182C63.205,24.748,62.221,24,61.117,24
			c-0.117,0-0.23,0.014-0.342,0.029c-0.012,0.002-0.023,0.003-0.035,0.003c-0.121,0-0.229-0.092-0.246-0.217
			c-0.019-0.137,0.077-0.263,0.214-0.281C60.842,23.516,60.978,23.5,61.117,23.5L61.117,23.5z"/>
	</g>
</g>
<g>
	<g>
		<path style="fill:#FFFFFF;" d="M42.5,24h-10c-0.276,0-0.5-0.224-0.5-0.5s0.224-0.5,0.5-0.5h10c0.276,0,0.5,0.224,0.5,0.5
			S42.777,24,42.5,24z"/>
	</g>
	<g>
		<path style="fill:#FFFFFF;" d="M45.5,24h-1c-0.276,0-0.5-0.224-0.5-0.5s0.224-0.5,0.5-0.5h1c0.276,0,0.5,0.224,0.5,0.5
			S45.777,24,45.5,24z"/>
	</g>
	<g>
		<path style="fill:#FFFFFF;" d="M50.491,26H41.5c-0.276,0-0.5-0.224-0.5-0.5s0.224-0.5,0.5-0.5h8.991c0.276,0,0.5,0.224,0.5,0.5
			S50.767,26,50.491,26z"/>
	</g>
	<g>
		<path style="fill:#FFFFFF;" d="M39.5,26h-1c-0.276,0-0.5-0.224-0.5-0.5s0.224-0.5,0.5-0.5h1c0.276,0,0.5,0.224,0.5,0.5
			S39.777,26,39.5,26z"/>
	</g>
	<g>
		<path style="fill:#FFFFFF;" d="M36.5,26h-2c-0.276,0-0.5-0.224-0.5-0.5s0.224-0.5,0.5-0.5h2c0.276,0,0.5,0.224,0.5,0.5
			S36.777,26,36.5,26z"/>
	</g>
	<g>
		<path style="fill:#FFFFFF;" d="M42.5,28h-2c-0.276,0-0.5-0.224-0.5-0.5s0.224-0.5,0.5-0.5h2c0.276,0,0.5,0.224,0.5,0.5
			S42.776,28,42.5,28z"/>
	</g>
	<g>
		<path style="fill:#FFFFFF;" d="M45.5,19c-0.177,0-0.823,0-1,0c-0.276,0-0.5,0.224-0.5,0.5c0,0.276,0.224,0.5,0.5,0.5
			c0.177,0,0.823,0,1,0c0.276,0,0.5-0.224,0.5-0.5C46,19.224,45.776,19,45.5,19z"/>
	</g>
	<g>
		<path style="fill:#FFFFFF;" d="M45.5,21c-0.177,0-4.823,0-5,0c-0.276,0-0.5,0.224-0.5,0.5c0,0.276,0.224,0.5,0.5,0.5
			c0.177,0,4.823,0,5,0c0.276,0,0.5-0.224,0.5-0.5C46,21.224,45.776,21,45.5,21z"/>
	</g>
	<g>
		<path style="fill:#FFFFFF;" d="M50.5,23c-0.177,0-2.823,0-3,0c-0.276,0-0.5,0.224-0.5,0.5c0,0.276,0.224,0.5,0.5,0.5
			c0.177,0,2.823,0,3,0c0.276,0,0.5-0.224,0.5-0.5C51,23.224,50.776,23,50.5,23z"/>
	</g>
</g>
<g>
	<g>
		<path style="fill:#FFFFFF;" d="M75.5,74h-10c-0.276,0-0.5-0.224-0.5-0.5s0.224-0.5,0.5-0.5h10c0.276,0,0.5,0.224,0.5,0.5
			S75.776,74,75.5,74z"/>
	</g>
	<g>
		<path style="fill:#FFFFFF;" d="M79.5,74h-2c-0.276,0-0.5-0.224-0.5-0.5s0.224-0.5,0.5-0.5h2c0.276,0,0.5,0.224,0.5,0.5
			S79.776,74,79.5,74z"/>
	</g>
	<g>
		<path style="fill:#FFFFFF;" d="M84.5,76h-10c-0.276,0-0.5-0.224-0.5-0.5s0.224-0.5,0.5-0.5h10c0.276,0,0.5,0.224,0.5,0.5
			S84.777,76,84.5,76z"/>
	</g>
	<g>
		<path style="fill:#FFFFFF;" d="M72.5,76h-1c-0.276,0-0.5-0.224-0.5-0.5s0.224-0.5,0.5-0.5h1c0.276,0,0.5,0.224,0.5,0.5
			S72.776,76,72.5,76z"/>
	</g>
	<g>
		<path style="fill:#FFFFFF;" d="M69.47,76H67.5c-0.276,0-0.5-0.224-0.5-0.5s0.224-0.5,0.5-0.5h1.97c0.276,0,0.5,0.224,0.5,0.5
			S69.746,76,69.47,76z"/>
	</g>
	<g>
		<path style="fill:#FFFFFF;" d="M78.5,72h-5c-0.276,0-0.5-0.224-0.5-0.5s0.224-0.5,0.5-0.5h5c0.276,0,0.5,0.224,0.5,0.5
			S78.777,72,78.5,72z"/>
	</g>
	<g>
		<path style="fill:#FFFFFF;" d="M75.5,78h-2c-0.276,0-0.5-0.224-0.5-0.5s0.224-0.5,0.5-0.5h2c0.276,0,0.5,0.224,0.5,0.5
			S75.776,78,75.5,78z"/>
	</g>
</g>
<g>
	<g>
		<path style="fill:#FDFCEF;" d="M27.5,82.5c0,0-1.567,0-3.5,0s-3.5-1.567-3.5-3.5c0-1.781,1.335-3.234,3.055-3.455
			C23.527,75.366,23.5,75.187,23.5,75c0-1.933,1.567-3.5,3.5-3.5c1.032,0,1.95,0.455,2.59,1.165c0.384-1.808,1.987-3.165,3.91-3.165
			c2.209,0,4,1.791,4,4c0,0.191-0.03,0.374-0.056,0.558C37.872,73.714,38.408,73.5,39,73.5c1.228,0,2.245,0.887,2.455,2.055
			C41.634,75.527,41.813,75.5,42,75.5c1.933,0,3.5,1.567,3.5,3.5s-1.567,3.5-3.5,3.5s-7.5,0-7.5,0V83h-7V82.5z"/>
	</g>
	<g>
		<path style="fill:#472B29;" d="M25.75,78c0.138,0,0.25-0.112,0.25-0.25c0-1.223-0.995-2.218-2.218-2.218
			c-0.034,0.009-0.737-0.001-1.244,0.136c-0.133,0.036-0.212,0.173-0.176,0.306c0.036,0.134,0.173,0.213,0.306,0.176
			c0.444-0.12,1.1-0.12,1.113-0.118c0.948,0,1.719,0.771,1.719,1.718C25.5,77.888,25.612,78,25.75,78z"/>
	</g>
	<g>
		<circle style="fill:#472B29;" cx="32.5" cy="82.5" r="0.5"/>
	</g>
	<g>
		<path style="fill:#472B29;" d="M24,83h3.5c0.276,0,0.5-0.224,0.5-0.5S27.776,82,27.5,82H24c-1.654,0-3-1.346-3-3
			c0-1.496,1.125-2.768,2.618-2.959c0.134-0.018,0.255-0.088,0.336-0.196s0.115-0.244,0.094-0.377C24.025,75.314,24,75.16,24,75
			c0-1.654,1.346-3,3-3c0.85,0,1.638,0.355,2.219,1c0.125,0.139,0.321,0.198,0.5,0.148c0.182-0.049,0.321-0.195,0.36-0.379
			C30.42,71.165,31.859,70,33.5,70c1.93,0,3.5,1.57,3.5,3.5c0,0.143-0.021,0.28-0.041,0.418c-0.029,0.203,0.063,0.438,0.242,0.54
			c0.179,0.102,0.396,0.118,0.556-0.01C38.122,74.155,38.551,74,39,74c0.966,0,1.792,0.691,1.963,1.644
			c0.048,0.267,0.296,0.446,0.569,0.405C41.686,76.025,41.84,76,42,76c1.654,0,3,1.346,3,3s-1.346,3-3,3h-7.5
			c-0.276,0-0.5,0.224-0.5,0.5s0.224,0.5,0.5,0.5H42c2.206,0,4-1.794,4-4s-1.794-4-4-4c-0.059,0-0.116,0.002-0.174,0.006
			C41.412,73.82,40.289,73,39,73c-0.349,0-0.689,0.061-1.011,0.18C37.824,70.847,35.874,69,33.5,69
			c-1.831,0-3.466,1.127-4.153,2.774C28.667,71.276,27.845,71,27,71c-2.206,0-4,1.794-4,4c0,0.048,0.001,0.095,0.004,0.142
			C21.261,75.59,20,77.169,20,79C20,81.206,21.794,83,24,83z"/>
	</g>
	<g>
		<path style="fill:#472B29;" d="M29.5,82c0.159,0,0.841,0,1,0c0.276,0,0.5,0.224,0.5,0.5c0,0.276-0.224,0.5-0.5,0.5
			c-0.159,0-0.841,0-1,0c-0.276,0-0.5-0.224-0.5-0.5C29,82.224,29.224,82,29.5,82z"/>
	</g>
</g>
</svg>