<?xml version="1.0" encoding="iso-8859-1"?>
<!-- Generator: Adobe Illustrator 23.0.3, SVG Export Plug-In . SVG Version: 6.00 Build 0)  -->
<svg version="1.1" xmlns="http://www.w3.org/2000/svg" xmlns:xlink="http://www.w3.org/1999/xlink" x="0px" y="0px"
	 viewBox="0 0 50 50" style="enable-background:new 0 0 50 50;" xml:space="preserve">
<g id="Layer_10" style="display:none;">
</g>
<g id="filled">
</g>
<g id="outlined">
</g>
<g id="rounded">
</g>
<g id="two_x5F_tone">
</g>
<g id="sharp">
</g>
<g id="win10">
</g>
<g id="ios_x5F_out">
</g>
<g id="ios_x5F_filled">
	<g>
		<path d="M8.826,16H9v10.761c0,1.404-0.976,2.237-2.5,2.237c-1.534,0-2.465-1.096-2.465-2.276L4,25H0v1.761
			C0,28.78,0.718,33,6.5,33c5.783,0,6.5-4.482,6.5-6.321V16H8.826z"/>
	</g>
	<g>
		<path d="M19.5,30c-1.263,0-1.5-1-1.5-2h7c0-5-2-7-5.5-7S14,23,14,26.813C14,31,15.817,33,19.522,33C22.769,33.034,25,30.617,25,29
			h-4C21,29,20.758,30,19.5,30z M19.5,24c1.029,0,1.5,1,1.5,2h-3C18,25,18.482,24,19.5,24z"/>
	</g>
	<g>
		<path d="M31.5,30c-1.263,0-1.5-1-1.5-2h7c0-5-2-7-5.5-7S26,23,26,26.813C26,31,27.817,33,31.522,33C34.769,33.034,37,30.617,37,29
			h-4C33,29,32.758,30,31.5,30z M31.5,24c1.029,0,1.5,1,1.5,2h-3C30,25,30.482,24,31.5,24z"/>
	</g>
	<g>
		<path d="M45.194,20.594c-1.884,0-2.591,0.875-2.843,1.181c-0.291,0.358-0.22,0.557-0.351,0.843V21h-4l0.072,15v0H42v-4.685
			c0.153,0.206,0.115,0.31,0.394,0.531c0.436,0.336,1.179,0.916,2.843,0.916c3.018,0,4.762-2.625,4.762-6.213
			C50,21.906,47.072,20.594,45.194,20.594z M44.058,30.086c-1.836,0-2.101-1.175-2.058-3.407c0.048-2.234,0.706-3.148,1.882-3.148
			c1.923,0,2.118,1.484,2.118,3.018C46,28.08,45.891,30.086,44.058,30.086z"/>
	</g>
</g>
<g id="color">
</g>
</svg>