<svg xmlns="http://www.w3.org/2000/svg"  viewBox="0 0 30 30" width="30px" height="30px"><path d="M 15.087891 3.4726562 C 11.940391 3.4726562 8.8703906 4.0351562 5.9003906 5.1601562 C 5.5103906 5.3101563 5.25 5.6796094 5.25 6.0996094 L 5.25 18.400391 C 5.25 24.740391 13.37 27.360312 15 27.820312 C 15.09 27.840312 15.179531 27.849609 15.269531 27.849609 C 15.349531 27.849609 15.420234 27.850078 15.490234 27.830078 C 16.500234 27.610078 25.410156 25.460391 25.410156 18.400391 L 25.410156 6.0996094 C 25.410156 5.6796094 25.140234 5.3001562 24.740234 5.1601562 C 21.460234 4.0351562 18.235391 3.4726562 15.087891 3.4726562 z M 15.138672 5.4707031 C 17.837422 5.4769531 20.600156 5.9300781 23.410156 6.8300781 L 23.410156 6.890625 C 14.240156 7.000625 9.45 9.320625 7.25 10.890625 L 7.25 6.7890625 C 9.805 5.9040625 12.439922 5.4644531 15.138672 5.4707031 z M 15.390625 11.310547 C 16.790625 11.320547 18.310547 12.109766 18.310547 15.009766 C 18.310547 18.659766 16.079922 19.070234 14.919922 18.740234 L 14.919922 22.060547 L 13.339844 22.060547 L 13.339844 11.859375 C 13.749844 11.579375 14.540625 11.310547 15.390625 11.310547 z M 20.669922 11.330078 C 21.299922 11.290078 21.960938 11.459375 22.460938 11.859375 L 22.460938 13.189453 C 21.630938 12.279453 20.140625 12.359531 20.140625 13.269531 C 20.140625 14.599531 22.790937 14.349844 22.710938 16.839844 C 22.620938 18.829844 20.470469 19.490156 18.730469 18.410156 L 18.730469 17 C 19.720469 17.83 21.210859 17.91 21.130859 16.75 C 21.130859 15.43 18.640625 15.679375 18.640625 13.359375 C 18.640625 12.109375 19.609922 11.420078 20.669922 11.330078 z M 7.7890625 11.449219 L 9.359375 11.449219 L 9.359375 16.419922 C 9.359375 17.909922 10.689453 17.500078 10.939453 17.330078 L 10.939453 11.449219 L 12.509766 11.449219 L 12.509766 18.25 C 11.679766 18.83 7.7890625 19.989844 7.7890625 16.339844 L 7.7890625 11.449219 z M 15.289062 12.580078 C 15.099063 12.590078 14.930078 12.649453 14.830078 12.689453 L 14.830078 17.5 C 15.000078 17.5 16.740156 18.329766 16.660156 15.009766 C 16.660156 12.839766 15.859063 12.530078 15.289062 12.580078 z"/></svg>