<?xml version="1.0" encoding="iso-8859-1"?>
<!-- Generator: Adobe Illustrator 23.0.6, SVG Export Plug-In . SVG Version: 6.00 Build 0)  -->
<svg version="1.1" baseProfile="basic" id="&#x421;&#x43B;&#x43E;&#x439;_1"
	 xmlns="http://www.w3.org/2000/svg" xmlns:xlink="http://www.w3.org/1999/xlink" x="0px" y="0px" viewBox="0 0 50 50"
	 xml:space="preserve">
<g>
	<path d="M29.931,25.437c-0.384,0.048-0.704,0.208-0.872,0.44c-0.128,0.168-0.192,0.368-0.168,0.6
		c0.04,0.352,0.432,0.624,0.888,0.568c0.672-0.08,1.128-0.728,1.24-1.368l0.016-0.176C30.747,25.437,30.331,25.389,29.931,25.437z"
		/>
	<path d="M40.021,23.868c-0.512,0-0.928,0.816-0.928,1.832c0,0.68,0.224,1.024,0.608,1.024c0.512,0,0.912-0.824,0.912-1.832
		C40.613,24.204,40.389,23.868,40.021,23.868z"/>
	<path d="M15.712,23.868c-0.512,0-0.928,0.816-0.928,1.832c0,0.68,0.224,1.024,0.608,1.024c0.512,0,0.912-0.824,0.912-1.832
		C16.304,24.204,16.08,23.868,15.712,23.868z"/>
	<path d="M41,4.5H9C6.519,4.5,4.5,6.519,4.5,9v32c0,2.481,2.019,4.5,4.5,4.5h32c2.481,0,4.5-2.019,4.5-4.5V9
		C45.5,6.519,43.481,4.5,41,4.5z M12.119,28.045c-0.528-0.048-1.36-0.056-2.192-0.056c-0.928,0-1.736,0.008-2.385,0.056l0.024-1.024
		l2.648-2.865c-1.16,0-1.584,0.008-2.064,0.024c0.104-0.512,0.184-1.08,0.256-1.648c0.848,0.016,1.184,0.032,2.272,0.032
		c1.016,0,1.584-0.016,2.224-0.048l-0.032,1.016l-2.649,2.881c1.104,0,1.808-0.008,2.208-0.032
		C12.311,26.925,12.215,27.373,12.119,28.045z M15.224,28.205c-1.552,0-2.352-1.056-2.352-2.44c0-1.84,1.32-3.377,3.041-3.377
		c1.576,0,2.352,1.056,2.352,2.424C18.264,26.661,16.96,28.205,15.224,28.205z M27.202,24.18l-0.656,3.785h-1.824l0.48-3.345
		c0.04-0.328,0.048-0.576-0.216-0.576c-0.456,0-1.056,0.888-1.192,1.632l-0.168,1.152c-0.056,0.408-0.12,0.864-0.128,1.152h-2
		c0.112-0.48,0.216-1.24,0.312-1.896l0.192-1.296c0.072-0.48,0.08-0.736-0.184-0.736c-0.456,0-1.056,0.888-1.192,1.632l-0.168,1.152
		c-0.048,0.408-0.128,0.864-0.136,1.152h-1.976c0.112-0.48,0.216-1.24,0.312-1.896l0.248-1.672c0.096-0.632,0.128-1.304,0.104-1.816
		c0.744-0.016,1.272-0.072,1.88-0.176c0.048,0.176,0.08,1.016-0.072,1.752c0.584-1.128,1.44-1.808,2.224-1.808
		c1.048,0,1.12,0.832,0.992,1.728c0.584-1.08,1.408-1.728,2.176-1.728C27.266,22.372,27.338,23.228,27.202,24.18z M32.795,24.476
		c-0.192,1.328-0.312,2.328-0.36,3.001c-0.008,0.104-0.008,0.28,0,0.536h-1.816c0.04-0.104,0.072-0.248,0.104-0.424
		c0.024-0.12,0.032-0.264,0.048-0.448c-0.376,0.528-0.904,0.848-1.568,0.928c-0.944,0.12-1.568-0.256-1.752-1.112
		c-0.12-0.536,0.048-1.144,0.328-1.512c0.384-0.48,1-0.784,1.76-0.88c0.608-0.072,1.12-0.04,1.6,0.056l0.024-0.08
		c0.016-0.128,0.024-0.264,0.008-0.424c-0.048-0.4-0.368-0.648-1.152-0.552c-0.528,0.064-1.04,0.256-1.432,0.472l-0.384-1.152
		c0.528-0.304,1.2-0.536,1.968-0.632c1.464-0.184,2.497,0.288,2.625,1.36C32.827,23.9,32.835,24.204,32.795,24.476z M35.844,26.701
		c0.272,0,0.664-0.16,0.904-0.28l-0.216,1.32c-0.328,0.176-0.944,0.432-1.656,0.432c-1.208,0-1.456-0.648-1.264-2.016l0.312-2.208
		h-0.6l0.168-1.432l0.648-0.032l0.248-1.04l1.84-0.688l-0.232,1.728h1.264c-0.04,0.176-0.192,1.16-0.232,1.464h-1.232l-0.28,2.04
		C35.444,26.517,35.484,26.701,35.844,26.701z M39.557,28.213c-1.576,0-2.376-1.072-2.376-2.473c0-1.864,1.336-3.425,3.081-3.425
		c1.592,0,2.376,1.072,2.376,2.465C42.637,26.653,41.309,28.213,39.557,28.213z"/>
</g>
</svg>